<svg width="182" height="182" xmlns="http://www.w3.org/2000/svg" xmlns:xlink="http://www.w3.org/1999/xlink" xml:space="preserve" overflow="hidden"><g transform="translate(-592 -312)"><path d="M690.949 473.193C681.199 477.099 679.144 474.226 676.302 470.257 674.15 467.248 671.471 463.506 665.285 462.939 659.26 462.37 654.089 465.367 649.078 468.247 641.54 472.587 634.421 476.689 623.456 471.512 622.509 471.065 621.378 471.47 620.931 472.417 620.484 473.364 620.89 474.494 621.837 474.941 634.592 480.96 643.292 475.952 650.97 471.529 655.675 468.821 660.125 466.264 664.94 466.704 669.397 467.113 671.168 469.587 673.219 472.452 675.394 475.485 677.769 478.814 683.3 478.814 686.425 478.687 689.499 477.971 692.36 476.706 693.332 476.317 693.805 475.212 693.416 474.24 693.026 473.267 691.922 472.794 690.949 473.184Z" stroke="#C04F15" stroke-width="2.52778" fill="#C04F15"/><path d="M743.712 335.444C739.987 329.665 732.709 326.484 723.22 326.484 721.116 326.491 719.014 326.632 716.928 326.905 712.497 327.474 708.388 329.52 705.263 332.712 704.035 331.192 701.964 330.642 700.144 331.355 691.495 334.799 683.32 339.332 675.817 344.843 667.288 350.99 659.461 358.055 652.477 365.914 648.97 369.923 646.56 374.772 645.481 379.988 643.779 379.584 642.021 380.397 641.227 381.956 636.867 390.275 632.006 403.54 631.221 412.722 630.527 420.874 633.568 427.851 638.969 430.522L639.783 430.922C636.56 435.965 625.238 454.37 621.093 469.889 624.276 465.882 627.717 462.086 631.393 458.527 631.393 458.527 633.32 449.854 644.977 433.436 646.769 434.201 648.698 434.593 650.646 434.586 653.593 434.479 656.512 433.973 659.323 433.081 673.53 429.136 683.345 415.664 683.756 415.092 684.772 413.677 684.694 411.753 683.567 410.426 688.093 408.428 692.102 405.42 695.287 401.633 698.908 397.311 702.877 393.292 707.153 389.617 710.837 386.453 715.153 383.321 719.722 380.004 722.009 378.343 724.373 376.627 726.655 374.902 728.081 373.826 728.735 372.01 728.324 370.272 728.258 370.001 728.169 369.737 728.056 369.482 728.698 369.362 729.339 369.225 729.977 369.072 734.004 368.082 737.625 365.866 740.338 362.729 748.306 353.507 749.439 344.326 743.712 335.444ZM737.471 360.253C735.281 362.795 732.351 364.591 729.091 365.389 726.57 365.997 723.985 366.305 721.391 366.306 718.191 366.308 715.01 365.831 711.951 364.892 711.918 364.881 711.884 364.876 711.849 364.877 711.712 364.876 711.587 364.955 711.527 365.078 711.499 365.137 711.487 365.202 711.492 365.267 711.505 365.37 711.562 365.463 711.648 365.521 715.381 368.058 719.604 369.785 724.045 370.591 724.438 370.653 724.706 371.022 724.644 371.415 724.615 371.596 724.518 371.76 724.373 371.872 717.68 376.928 710.418 381.814 704.685 386.736 700.254 390.542 696.142 394.706 692.392 399.184 687.115 405.503 679.33 409.185 671.098 409.256 669.784 409.257 668.471 409.159 667.172 408.962L666.931 408.926C666.913 408.924 666.894 408.924 666.876 408.926 666.679 408.926 666.519 409.085 666.518 409.282 666.518 409.418 666.596 409.543 666.719 409.603 671.068 411.726 675.838 412.845 680.678 412.879 680.678 412.879 671.388 425.794 658.307 429.426 655.824 430.217 653.247 430.677 650.644 430.795 648.981 430.816 647.338 430.438 645.851 429.693L641.999 427.798C651.585 410.666 663.234 394.774 676.687 380.478 683.139 374.019 690.153 368.147 697.647 362.933 697.792 362.828 697.843 362.636 697.77 362.473 697.692 362.313 697.509 362.233 697.338 362.283 695.876 362.688 694.48 363.305 693.198 364.116 684.085 369.9 675.676 376.725 668.142 384.453 658.692 393.919 645.582 413.181 638.448 425.428 635.642 421.952 634.395 417.473 634.999 413.048 635.724 404.581 640.357 391.773 644.606 383.683L644.606 383.683C645.488 387.684 647.123 391.48 649.425 394.869 649.492 394.966 649.602 395.025 649.721 395.024 649.774 395.024 649.826 395.012 649.874 394.99 650.033 394.914 650.114 394.733 650.064 394.564 649.386 392.357 648.948 390.083 648.759 387.782 648.25 380.701 650.619 373.715 655.328 368.403 662.123 360.759 669.74 353.886 678.041 347.911 685.284 342.593 693.175 338.217 701.522 334.888 701.604 334.856 701.691 334.839 701.778 334.839 702.177 334.849 702.492 335.181 702.482 335.579 702.481 335.63 702.474 335.68 702.463 335.728 701.678 339.223 701.481 342.825 701.881 346.385 701.92 346.735 701.966 347.092 702.017 347.443 702.042 347.617 702.192 347.747 702.368 347.748L702.368 347.748C702.54 347.746 702.687 347.622 702.717 347.452 703.077 345.125 703.693 342.844 704.554 340.652 706.707 335.237 711.628 331.416 717.407 330.672 719.333 330.418 721.273 330.287 723.214 330.282 731.302 330.282 737.471 332.775 740.52 337.503 745.942 345.888 743.449 353.329 737.471 360.253Z" stroke="#C04F15" stroke-width="2.52778" fill="#C04F15"/></g></svg>